<svg xmlns:xlink="http://www.w3.org/1999/xlink" xmlns="http://www.w3.org/2000/svg" width="160" height="94" viewBox="0 0 160 94" fill="none">
<path fill-rule="evenodd" clip-rule="evenodd" d="M82.8921 17.2874C73.4753 6.45886 59.0136 0.34559 43.6844 2.21273C19.1699 5.19877 1.72101 27.4642 4.71128 51.9441C7.70151 76.4239 29.9986 93.8479 54.5133 90.8617C66.2933 89.4269 76.4424 83.5399 83.4751 75.0944C76.121 84.5649 65.1297 91.2142 52.2755 92.7802C26.7144 95.8936 3.46565 77.7257 0.347778 52.201C-2.77012 26.6765 15.4235 3.46073 40.9844 0.347289C57.5358 -1.66877 73.1174 5.2381 82.8921 17.2874ZM27.2522 42.3498C27.2522 47.0127 31.5031 50.5875 37.6475 50.5875C40.3526 50.5875 43.3283 49.7479 45.2217 48.349L43.6375 46.1421C42.0916 47.2613 39.9662 47.9761 37.8794 47.9761C34.3627 47.9761 31.3485 46.1421 31.1553 42.7539H45.3764C45.4537 42.3188 45.531 41.8836 45.531 41.4795C45.531 37.4384 42.594 34.1124 37.0679 34.1124C31.5031 34.1124 27.2522 37.3452 27.2522 42.3498ZM31.2712 40.578C31.8122 37.9669 34.0922 36.4437 36.9906 36.4437C39.5411 36.4437 41.6279 37.8737 41.7438 40.578H31.2712ZM61.1683 50.5875C54.9851 50.5875 50.6959 47.0749 50.6959 42.3498C50.6959 37.6872 55.024 34.1124 61.1683 34.1124C63.7576 34.1124 66.6557 34.8273 68.5108 36.4126L66.733 38.5264C65.4192 37.4695 63.3711 36.7235 61.323 36.7235C57.3814 36.7235 54.5217 39.117 54.5217 42.3188C54.5217 45.5206 57.3814 47.9761 61.4387 47.9761C63.603 47.9761 65.9604 47.137 67.4673 45.8624L68.9747 48.0693C67.1969 49.5925 64.2215 50.5875 61.1683 50.5875ZM74.9611 45.8935C74.9611 49.8722 78.0527 50.3699 80.2166 50.3699C80.6825 50.3699 81.0622 50.3239 81.3314 50.2912L81.4005 50.2829L81.4531 50.2767V47.6032C81.2216 47.6342 80.9508 47.6342 80.7962 47.6342C79.6369 47.6342 78.6708 47.2613 78.6708 45.3963V28.2684H74.9611V45.8935ZM90.9832 31.3147H87.1185V28.2684H90.9832V31.3147ZM90.9443 50.2141H87.1958V34.4854H90.9443V50.2141ZM98.6384 56.4312H102.387V49.2818C102.387 48.4733 102.232 47.9139 102.232 47.9139H102.31C103.662 49.5925 105.904 50.5875 108.377 50.5875C113.516 50.5875 117.227 47.3546 117.227 42.3498C117.227 37.4695 113.941 34.1124 108.648 34.1124C105.788 34.1124 103.314 35.1693 102.078 37.0654H102C102 37.0654 102.117 36.537 102.117 35.8842V34.4854H98.6384V56.4312ZM102.271 42.412C102.271 38.4332 104.976 36.7546 107.913 36.7546C111.159 36.7546 113.439 38.9616 113.439 42.3809C113.439 45.9557 110.889 47.9761 107.797 47.9761C104.203 47.9761 102.271 45.2098 102.271 42.412ZM129.577 50.5875C126.949 50.5875 124.051 49.8722 122.118 48.2868L123.896 46.2353C125.365 47.3856 127.606 48.0693 129.654 48.0693C131.625 48.0693 132.978 47.3235 132.978 46.0178C132.978 44.7115 131.092 44.1229 128.954 43.4556C126.157 42.5827 122.93 41.5753 122.93 38.6508C122.93 35.6666 126.137 34.1124 129.963 34.1124C132.204 34.1124 134.601 34.6097 136.301 35.8531L134.794 38.029C133.634 37.1587 131.586 36.6303 129.847 36.6303C127.954 36.6303 126.524 37.2519 126.524 38.5886C126.524 39.9273 128.433 40.5131 130.589 41.1749C133.39 42.0346 136.61 43.0227 136.61 45.9557C136.61 48.6292 133.75 50.5875 129.577 50.5875ZM141.721 42.3498C141.721 47.0127 145.972 50.5875 152.116 50.5875C154.822 50.5875 157.797 49.7479 159.691 48.349L158.107 46.1421C156.561 47.2613 154.435 47.9761 152.348 47.9761C148.832 47.9761 145.818 46.1421 145.624 42.7539H159.845C159.923 42.3188 160 41.8836 160 41.4795C160 37.4384 157.063 34.1124 151.537 34.1124C145.972 34.1124 141.721 37.3452 141.721 42.3498ZM145.74 40.578C146.281 37.9669 148.561 36.4437 151.46 36.4437C154.01 36.4437 156.097 37.8737 156.213 40.578H145.74ZM47.9825 66.1425V56.0544H47.3017V60.6906C47.011 60.156 46.6117 59.7389 46.1036 59.4398C45.6042 59.1407 45.0368 58.9911 44.4017 58.9911C43.7389 58.9911 43.1399 59.145 42.6043 59.4534C42.0688 59.7525 41.6467 60.1783 41.3381 60.7314C41.0386 61.2752 40.8888 61.8963 40.8888 62.594C40.8888 63.2918 41.0386 63.9128 41.3381 64.4566C41.6467 65.0005 42.0688 65.4263 42.6043 65.7346C43.1399 66.043 43.7389 66.1969 44.4017 66.1969C45.046 66.1969 45.6222 66.0474 46.1308 65.7482C46.639 65.4491 47.0338 65.0233 47.3153 64.4702V66.1425H47.9825ZM45.8994 65.2044C45.4724 65.4584 44.9872 65.5851 44.4426 65.5851C43.8979 65.5851 43.4078 65.4584 42.9719 65.2044C42.5453 64.9505 42.205 64.597 41.9508 64.1439C41.7057 63.6909 41.5832 63.1743 41.5832 62.594C41.5832 62.0138 41.7057 61.4971 41.9508 61.0441C42.205 60.5911 42.5453 60.2376 42.9719 59.9836C43.4078 59.7297 43.8979 59.6029 44.4426 59.6029C44.9872 59.6029 45.4724 59.7297 45.8994 59.9836C46.3351 60.2376 46.6754 60.5911 46.9205 61.0441C47.1743 61.4971 47.3017 62.0138 47.3017 62.594C47.3017 63.1743 47.1743 63.6909 46.9205 64.1439C46.6754 64.597 46.3351 64.9505 45.8994 65.2044ZM51.0702 57.1693C51.1791 57.2688 51.3109 57.3188 51.465 57.3188C51.6197 57.3188 51.751 57.2644 51.8599 57.1557C51.9688 57.0469 52.0233 56.9153 52.0233 56.7614C52.0233 56.6075 51.9688 56.4803 51.8599 56.3807C51.751 56.272 51.6197 56.2176 51.465 56.2176C51.3109 56.2176 51.1791 56.272 51.0702 56.3807C50.9613 56.4895 50.9068 56.6211 50.9068 56.775C50.9068 56.9289 50.9613 57.0605 51.0702 57.1693ZM61.3462 65.3812V59.0455H60.6927V60.6498C60.4112 60.1239 60.0076 59.7161 59.481 59.4262C58.9544 59.1363 58.3645 58.9911 57.711 58.9911C57.0482 58.9911 56.4448 59.1363 55.9002 59.4262C55.3648 59.7161 54.9427 60.1239 54.634 60.6498C54.3252 61.1757 54.1711 61.769 54.1711 62.4309C54.1711 63.0927 54.3252 63.6861 54.634 64.2119C54.9427 64.7378 55.3648 65.15 55.9002 65.4491C56.4448 65.739 57.0482 65.8842 57.711 65.8842C58.3553 65.8842 58.9364 65.7439 59.4537 65.4627C59.9711 65.1816 60.3752 64.7829 60.6655 64.2663V65.4627C60.6655 66.4052 60.4384 67.0986 59.9847 67.5429C59.5311 67.9959 58.8318 68.2227 57.888 68.2227C57.3254 68.2227 56.7944 68.1319 56.295 67.9508C55.7956 67.7697 55.3692 67.5157 55.0152 67.1894L54.6476 67.706C55.0016 68.0595 55.4689 68.3358 56.0499 68.5354C56.631 68.735 57.2481 68.8345 57.9016 68.8345C59.0545 68.8345 59.9166 68.5534 60.4885 67.9916C61.0603 67.4298 61.3462 66.5596 61.3462 65.3812ZM51.8054 59.0455H51.1247V66.1425H51.8054V59.0455ZM59.2631 64.9189C58.8182 65.1544 58.3193 65.2724 57.7655 65.2724C57.2116 65.2724 56.7127 65.1544 56.2678 64.9189C55.8321 64.6742 55.4874 64.3387 55.233 63.9128C54.988 63.4777 54.8654 62.9839 54.8654 62.4309C54.8654 61.8778 54.988 61.3884 55.233 60.9625C55.4874 60.5367 55.8321 60.2055 56.2678 59.97C56.7127 59.7253 57.2116 59.6029 57.7655 59.6029C58.3193 59.6029 58.8182 59.7253 59.2631 59.97C59.708 60.2055 60.0528 60.5367 60.2979 60.9625C60.5522 61.3884 60.6791 61.8778 60.6791 62.4309C60.6791 62.9839 60.5522 63.4777 60.2979 63.9128C60.0528 64.3387 59.708 64.6742 59.2631 64.9189ZM65.1808 59.0455H64.5001V66.1425H65.1808V59.0455ZM64.4456 57.1693C64.5546 57.2688 64.6863 57.3188 64.8405 57.3188C64.9946 57.3188 65.1264 57.2644 65.2353 57.1557C65.3442 57.0469 65.3987 56.9153 65.3987 56.7614C65.3987 56.6075 65.3442 56.4803 65.2353 56.3807C65.1264 56.272 64.9946 56.2176 64.8405 56.2176C64.6863 56.2176 64.5546 56.272 64.4456 56.3807C64.3367 56.4895 64.2822 56.6211 64.2822 56.775C64.2822 56.9289 64.3367 57.0605 64.4456 57.1693ZM71.1953 66.0745C71.4584 65.9837 71.6762 65.857 71.8489 65.6939L71.563 65.218C71.2722 65.4807 70.9046 65.6123 70.4601 65.6123C70.0244 65.6123 69.6928 65.4943 69.4662 65.2588C69.2484 65.0141 69.1395 64.6606 69.1395 64.1983V59.6301H71.3996V59.0455H69.1395V57.4956H68.4587V59.0455H67.1516V59.6301H68.4587V64.2663C68.4587 64.8737 68.6264 65.3496 68.9624 65.6939C69.298 66.0294 69.7745 66.1969 70.392 66.1969C70.6731 66.1969 70.941 66.1561 71.1953 66.0745ZM78.4444 59.6709C77.9723 59.2179 77.2964 58.9911 76.4158 58.9911C75.8712 58.9911 75.3494 59.0819 74.85 59.263C74.3506 59.4354 73.9242 59.6801 73.5702 59.9972L73.9106 60.4867C74.2101 60.2147 74.5733 59.9972 74.9998 59.8341C75.4355 59.6709 75.8892 59.5893 76.3613 59.5893C77.0513 59.5893 77.5731 59.7617 77.9271 60.106C78.2903 60.4502 78.4717 60.9533 78.4717 61.6151V62.1861H76.0345C75.1087 62.1861 74.4323 62.3721 74.0059 62.7436C73.5882 63.1063 73.3796 63.5821 73.3796 64.1711C73.3796 64.7786 73.6067 65.268 74.0603 65.6395C74.5233 66.0109 75.1496 66.1969 75.9392 66.1969C76.5475 66.1969 77.0693 66.0838 77.505 65.857C77.9407 65.6215 78.2718 65.2952 78.4989 64.8781V66.1425H79.1524V61.6423C79.1524 60.7722 78.9166 60.1152 78.4444 59.6709ZM77.5322 65.2316C77.1238 65.5035 76.6244 65.6395 76.0345 65.6395C75.4082 65.6395 74.9225 65.5079 74.5777 65.2452C74.233 64.9733 74.0603 64.6062 74.0603 64.1439C74.0603 63.6996 74.2145 63.351 74.5233 63.0971C74.8408 62.8431 75.3494 62.7164 76.0482 62.7164H78.4717V64.0488C78.2631 64.5654 77.9499 64.9597 77.5322 65.2316ZM82.9102 56.0544H82.2294V66.1425H82.9102V56.0544ZM105.061 65.9386C105.578 66.111 106.123 66.1969 106.695 66.1969C107.584 66.1969 108.274 66.0202 108.764 65.6667C109.255 65.3132 109.5 64.8417 109.5 64.2527C109.5 63.8084 109.381 63.4598 109.146 63.2058C108.91 62.9519 108.619 62.7708 108.274 62.662C107.938 62.544 107.494 62.4352 106.94 62.3357C106.441 62.2362 106.051 62.1454 105.769 62.0638C105.497 61.973 105.265 61.8419 105.075 61.6695C104.884 61.4884 104.789 61.2388 104.789 60.9217C104.789 60.5231 104.957 60.2011 105.293 59.9564C105.629 59.7117 106.127 59.5893 106.79 59.5893C107.181 59.5893 107.562 59.6437 107.934 59.7525C108.306 59.8612 108.637 60.02 108.928 60.2283L109.241 59.6845C108.959 59.4762 108.597 59.3082 108.152 59.1815C107.707 59.0547 107.257 58.9911 106.804 58.9911C105.942 58.9911 105.275 59.1771 104.802 59.5485C104.339 59.9113 104.108 60.3735 104.108 60.9353C104.108 61.3976 104.231 61.7603 104.476 62.023C104.721 62.2857 105.016 62.476 105.361 62.594C105.705 62.712 106.16 62.8208 106.722 62.9203C107.203 63.0111 107.58 63.0971 107.852 63.1786C108.124 63.2602 108.352 63.3869 108.533 63.5593C108.724 63.7317 108.819 63.9672 108.819 64.2663C108.819 64.6834 108.646 65.0097 108.301 65.2452C107.965 65.4807 107.439 65.5987 106.722 65.5987C106.223 65.5987 105.742 65.5171 105.279 65.354C104.825 65.1908 104.453 64.9869 104.162 64.7421L103.849 65.286C104.14 65.5487 104.544 65.7662 105.061 65.9386ZM114.544 66.0745C114.808 65.9837 115.025 65.857 115.198 65.6939L114.912 65.218C114.622 65.4807 114.254 65.6123 113.809 65.6123C113.374 65.6123 113.042 65.4943 112.815 65.2588C112.598 65.0141 112.489 64.6606 112.489 64.1983V59.6301H114.749V59.0455H112.489V57.4956H111.808V59.0455H110.501V59.6301H111.808V64.2663C111.808 64.8737 111.976 65.3496 112.312 65.6939C112.648 66.0294 113.124 66.1969 113.741 66.1969C114.023 66.1969 114.29 66.1561 114.544 66.0745ZM122.937 66.1425H123.591V59.0455H122.91V62.8251C122.91 63.6681 122.674 64.3386 122.202 64.8373C121.739 65.336 121.108 65.5851 120.31 65.5851C119.566 65.5851 118.989 65.3768 118.58 64.9597C118.172 64.5426 117.968 63.9356 117.968 63.1378V59.0455H117.287V63.1922C117.287 64.1619 117.551 64.9053 118.077 65.422C118.603 65.9386 119.329 66.1969 120.255 66.1969C120.881 66.1969 121.426 66.061 121.889 65.789C122.352 65.5079 122.701 65.1185 122.937 64.6198V66.1425ZM133.066 66.1425V56.0544H132.386V60.6906C132.095 60.156 131.696 59.7389 131.188 59.4398C130.688 59.1407 130.121 58.9911 129.486 58.9911C128.823 58.9911 128.224 59.145 127.688 59.4534C127.153 59.7525 126.731 60.1783 126.422 60.7314C126.123 61.2752 125.973 61.8963 125.973 62.594C125.973 63.2918 126.123 63.9128 126.422 64.4566C126.731 65.0005 127.153 65.4263 127.688 65.7346C128.224 66.043 128.823 66.1969 129.486 66.1969C130.13 66.1969 130.706 66.0474 131.215 65.7482C131.723 65.4491 132.118 65.0233 132.399 64.4702V66.1425H133.066ZM130.983 65.2044C130.556 65.4584 130.071 65.5851 129.526 65.5851C128.982 65.5851 128.492 65.4584 128.056 65.2044C127.629 64.9505 127.289 64.597 127.035 64.1439C126.79 63.6909 126.667 63.1743 126.667 62.594C126.667 62.0138 126.79 61.4971 127.035 61.0441C127.289 60.5911 127.629 60.2376 128.056 59.9836C128.492 59.7297 128.982 59.6029 129.526 59.6029C130.071 59.6029 130.556 59.7297 130.983 59.9836C131.419 60.2376 131.759 60.5911 132.004 61.0441C132.258 61.4971 132.386 62.0138 132.386 62.594C132.386 63.1743 132.258 63.6909 132.004 64.1439C131.759 64.597 131.419 64.9505 130.983 65.2044ZM136.154 57.1693C136.263 57.2688 136.395 57.3188 136.549 57.3188C136.704 57.3188 136.835 57.2644 136.944 57.1557C137.053 57.0469 137.107 56.9153 137.107 56.7614C137.107 56.6075 137.053 56.4803 136.944 56.3807C136.835 56.272 136.704 56.2176 136.549 56.2176C136.395 56.2176 136.263 56.272 136.154 56.3807C136.045 56.4895 135.991 56.6211 135.991 56.775C135.991 56.9289 136.045 57.0605 136.154 57.1693ZM140.984 65.7346C141.529 66.043 142.137 66.1969 142.809 66.1969C143.48 66.1969 144.084 66.043 144.619 65.7346C145.164 65.4263 145.59 65.0005 145.899 64.4566C146.208 63.9036 146.362 63.283 146.362 62.594C146.362 61.905 146.208 61.2888 145.899 60.745C145.59 60.1919 145.164 59.7617 144.619 59.4534C144.084 59.145 143.48 58.9911 142.809 58.9911C142.137 58.9911 141.529 59.145 140.984 59.4534C140.449 59.7617 140.027 60.1919 139.718 60.745C139.409 61.2888 139.255 61.905 139.255 62.594C139.255 63.283 139.409 63.9036 139.718 64.4566C140.027 65.0005 140.449 65.4263 140.984 65.7346ZM136.889 59.0455H136.209V66.1425H136.889V59.0455ZM144.265 65.2044C143.839 65.4584 143.353 65.5851 142.809 65.5851C142.264 65.5851 141.774 65.4584 141.338 65.2044C140.912 64.9505 140.571 64.597 140.317 64.1439C140.072 63.6909 139.949 63.1743 139.949 62.594C139.949 62.0138 140.072 61.4971 140.317 61.0441C140.571 60.5911 140.912 60.2376 141.338 59.9836C141.774 59.7297 142.264 59.6029 142.809 59.6029C143.353 59.6029 143.839 59.7297 144.265 59.9836C144.701 60.2376 145.041 60.5911 145.286 61.0441C145.541 61.4971 145.668 62.0138 145.668 62.594C145.668 63.1743 145.541 63.6909 145.286 64.1439C145.041 64.597 144.701 64.9505 144.265 65.2044Z" fill="white"/>
</svg>